<svg width="170" height="47" viewBox="0 0 170 47" fill="none" xmlns="http://www.w3.org/2000/svg">
<path d="M11.712 16.4087C9.17853 16.4087 7.15603 16.1136 5.64456 15.5234C4.13309 14.9332 3.03907 14.0191 2.3625 12.7811C1.68594 11.5288 1.34766 9.87335 1.34766 7.81487V1.09961H3.39894V7.77168C3.39894 9.41271 3.66525 10.7227 4.19786 11.7015C4.73048 12.666 5.60137 13.3785 6.81055 13.8392C8.01973 14.2854 9.65356 14.5085 11.712 14.5085C13.7705 14.5085 15.4044 14.2854 16.6135 13.8392C17.8227 13.3785 18.6936 12.6588 19.2262 11.6799C19.7732 10.7011 20.0467 9.39832 20.0467 7.77168V1.09961H22.098V7.81487C22.098 9.87335 21.7525 11.5288 21.0616 12.7811C20.385 14.0191 19.291 14.9332 17.7795 15.5234C16.2681 16.1136 14.2456 16.4087 11.712 16.4087Z" fill="#131212"/>
<path d="M27.3674 1.09961H29.4187V14.3358H44.2528V16.2143H27.3674V1.09961Z" fill="#131212"/>
<path d="M51.1413 2.97816H41.6406V1.09961H62.6716V2.97816H53.1925V16.2143H51.1413V2.97816Z" fill="#131212"/>
<path d="M65.786 1.09961H67.8373V16.2143H65.786V1.09961Z" fill="#131212"/>
<path d="M73.5348 1.09961H75.4134L86.6415 10.7083L97.9775 1.09961H99.8561V16.2143H97.8048V3.69071L87.4836 12.5436H85.7778L75.5861 3.7123V16.2143H73.5348V1.09961Z" fill="#131212"/>
<path d="M114.126 1.09961H116.458L127.47 16.2143H124.987L122.439 12.6732H108.145L105.597 16.2143H103.071L114.126 1.09961ZM121.101 10.8162L115.314 2.78382H115.271L109.484 10.8162H121.101Z" fill="#131212"/>
<path d="M134.979 2.97816H125.478V1.09961H146.51V2.97816H137.03V16.2143H134.979V2.97816Z" fill="#131212"/>
<path d="M149.624 1.09961H168.928V2.97816H151.675V7.64213H168.258V9.54227H151.675V14.3358H169.1V16.2143H149.624V1.09961Z" fill="#131212"/>
<path d="M1.77951 28.0902H15.7067C19.9964 28.0902 22.1412 29.7312 22.1412 33.0133C22.1412 36.2953 19.9964 37.9364 15.7067 37.9364H3.83079V43.2049H1.77951V28.0902ZM15.7282 36.0578C17.067 36.0578 18.1178 35.8347 18.8807 35.3885C19.6581 34.9422 20.0467 34.1505 20.0467 33.0133C20.0467 31.8761 19.6653 31.0844 18.9023 30.6381C18.1394 30.1919 17.0814 29.9687 15.7282 29.9687H3.83079V36.0578H15.7282Z" fill="#131212"/>
<path d="M25.9968 28.0902H28.0481V43.2049H25.9968V28.0902Z" fill="#131212"/>
<path d="M33.7456 28.0902H35.7969V41.3264H50.631V43.2049H33.7456V28.0902Z" fill="#131212"/>
<path d="M54.2307 28.0902H56.2819V41.3264H71.116V43.2049H54.2307V28.0902Z" fill="#131212"/>
<path fill-rule="evenodd" clip-rule="evenodd" d="M1.57305 13.2119L1.57096 13.2081C0.798815 11.7788 0.447998 9.95976 0.447998 7.81417V0.199219H4.29866V7.77098C4.29866 9.32604 4.55281 10.4693 4.98681 11.2683C5.39872 12.0128 6.0833 12.5977 7.12651 12.9961C8.19419 13.3891 9.70692 13.6081 11.7121 13.6081C13.7172 13.6081 15.23 13.3891 16.2977 12.9961C17.3379 12.5989 18.0228 12.0086 18.436 11.2492L18.4408 11.2403C18.8866 10.4426 19.1471 9.30871 19.1471 7.77098V0.199219H22.9977V7.81417C22.9977 9.96132 22.6392 11.7825 21.8502 13.2135C21.0571 14.6638 19.7835 15.706 18.1068 16.3607C16.4493 17.008 14.3017 17.3077 11.7121 17.3077C9.12244 17.3077 6.97487 17.008 5.31734 16.3607C3.64006 15.7058 2.36611 14.663 1.57305 13.2119ZM26.4678 0.199219H30.3184V13.4354H45.1525V17.1133H26.4678V0.199219ZM29.4187 14.3351V1.09891H27.3675V16.2136H44.2528V14.3351H29.4187ZM40.7409 3.87714V0.199219H63.5714V3.87714H54.0923V17.1133H50.2416V3.87714H40.7409ZM51.1413 2.97745V16.2136H53.1926V2.97745H62.6717V1.09891H41.6406V2.97745H51.1413ZM64.8864 0.199219H68.737V17.1133H64.8864V0.199219ZM72.6352 0.199219H75.7458L86.6443 9.5258L97.6476 0.199219H100.756V17.1133H96.9051V5.64701L87.8166 13.4426H85.4422L76.4858 5.68166V17.1133H72.6352V0.199219ZM75.5862 3.71159L85.7778 12.5429H87.4836L97.8048 3.69V16.2136H99.8561V1.09891H97.9776L86.6415 10.7076L75.4134 1.09891H73.5349V16.2136H75.5862V3.71159ZM113.67 0.199219H116.916L129.239 17.1133H124.526L121.978 13.5722H108.606L106.058 17.1133H101.298L113.67 0.199219ZM108.145 12.6725H122.439L124.987 16.2136H127.471L116.458 1.09891H114.126L103.071 16.2136H105.597L108.145 12.6725ZM115.271 2.78312H115.314L121.101 10.8155H109.484L115.271 2.78312ZM115.292 4.2923L111.241 9.91583H119.344L115.292 4.2923ZM124.579 3.87714V0.199219H147.409V3.87714H137.93V17.1133H134.079V3.87714H124.579ZM134.979 2.97745V16.2136H137.03V2.97745H146.51V1.09891H125.478V2.97745H134.979ZM148.724 0.199219H169.827V3.87714H152.575V6.74174H169.158V10.4413H152.575V13.4354H170V17.1133H148.724V0.199219ZM151.675 14.3351V9.54156H168.258V7.64143H151.675V2.97745H168.928V1.09891H149.624V16.2136H169.1V14.3351H151.675ZM0.879848 27.1898H15.7067C17.9409 27.1898 19.7815 27.6128 21.0793 28.6057C22.4227 29.6336 23.0409 31.1587 23.0409 33.0126C23.0409 34.8665 22.4227 36.3916 21.0793 37.4194C19.7815 38.4124 17.9409 38.8354 15.7067 38.8354H4.73051V44.1039H0.879848V27.1898ZM3.83082 37.9357H15.7067C19.9964 37.9357 22.1412 36.2946 22.1412 33.0126C22.1412 29.7305 19.9964 28.0895 15.7067 28.0895H1.77953V43.2042H3.83082V37.9357ZM18.4329 34.6075C18.8533 34.3661 19.1471 33.928 19.1471 33.0126C19.1471 32.0896 18.8549 31.652 18.4481 31.414C17.8775 31.0803 16.9997 30.8677 15.7283 30.8677H4.73051V35.1574H15.7283C16.9832 35.1574 17.8547 34.9456 18.4265 34.6112L18.4329 34.6075ZM3.83082 36.0571V29.968H15.7283C17.0814 29.968 18.1394 30.1912 18.9024 30.6374C19.6653 31.0837 20.0468 31.8754 20.0468 33.0126C20.0468 34.1498 19.6581 34.9415 18.8808 35.3878C18.1178 35.834 17.067 36.0571 15.7283 36.0571H3.83082ZM25.0972 27.1898H28.9478V44.1039H25.0972V27.1898ZM32.846 27.1898H36.6966V40.426H51.5307V44.1039H32.846V27.1898ZM35.797 41.3257V28.0895H33.7457V43.2042H50.631V41.3257H35.797ZM53.331 27.1898H57.1817V40.426H72.0157V44.1039H53.331V27.1898ZM56.282 41.3257V28.0895H54.2307V43.2042H71.116V41.3257H56.282ZM5.64459 15.5227C7.15606 16.1129 9.17856 16.408 11.7121 16.408C14.2456 16.408 16.2681 16.1129 17.7796 15.5227C19.291 14.9325 20.3851 14.0184 21.0616 12.7804C21.7526 11.5281 22.0981 9.87265 22.0981 7.81417V1.09891H20.0468V7.77098C20.0468 9.39761 19.7733 10.7004 19.2263 11.6792C18.6936 12.6581 17.8227 13.3778 16.6136 13.8385C15.4044 14.2847 13.7706 14.5078 11.7121 14.5078C9.65359 14.5078 8.01976 14.2847 6.81058 13.8385C5.6014 13.3778 4.73051 12.6653 4.19789 11.7008C3.66528 10.722 3.39897 9.41201 3.39897 7.77098V1.09891H1.34768V7.81417C1.34768 9.87265 1.68597 11.5281 2.36253 12.7804C3.0391 14.0184 4.13311 14.9325 5.64459 15.5227ZM65.786 1.09891V16.2136H67.8373V1.09891H65.786ZM25.9968 28.0895V43.2042H28.0481V28.0895H25.9968Z" fill="#131212"/>
<path d="M131.327 46.5176C130.03 46.5176 128.923 46.0618 128.006 45.1504C127.095 44.2389 126.639 43.1348 126.639 41.8379C126.639 40.541 127.095 39.4368 128.006 38.5254C128.923 37.6087 130.03 37.1504 131.327 37.1504C132.618 37.1504 133.72 37.6087 134.631 38.5254C135.548 39.4368 136.006 40.541 136.006 41.8379C136.006 43.1348 135.548 44.2389 134.631 45.1504C133.72 46.0618 132.618 46.5176 131.327 46.5176ZM131.334 37.8848C130.241 37.8848 129.306 38.2702 128.53 39.041C127.759 39.8118 127.374 40.7441 127.374 41.8379C127.374 42.9264 127.759 43.8561 128.53 44.627C129.306 45.3978 130.241 45.7832 131.334 45.7832C132.423 45.7832 133.35 45.3978 134.116 44.627C134.887 43.8561 135.272 42.9264 135.272 41.8379C135.272 40.7441 134.887 39.8118 134.116 39.041C133.35 38.2702 132.423 37.8848 131.334 37.8848ZM133.6 44.7676H132.522L131.874 43.3379C131.545 42.6191 131.191 42.2598 130.811 42.2598H130.405V44.7676H129.491V38.8066H131.17C131.863 38.8066 132.397 38.9525 132.772 39.2441C133.152 39.5358 133.342 39.9316 133.342 40.4316C133.342 40.8379 133.209 41.1868 132.944 41.4785C132.678 41.765 132.308 41.9577 131.834 42.0566V42.0801C132.163 42.153 132.491 42.5202 132.819 43.1816L133.6 44.7676ZM130.405 39.5801V41.4941H131.139C131.962 41.4941 132.374 41.1738 132.374 40.5332C132.374 40.1634 132.262 39.9134 132.038 39.7832C131.819 39.6478 131.47 39.5801 130.991 39.5801H130.405Z" fill="#131212"/>
<rect x="82.1169" y="27.2109" width="38.2853" height="16.6928" rx="8.34639" stroke="#131212" stroke-width="4"/>
<line x1="105.509" y1="26.1113" x2="105.509" y2="43.2054" stroke="#131212" stroke-width="4"/>
</svg>
