<svg width="192" height="57" viewBox="0 0 192 57" fill="none" xmlns="http://www.w3.org/2000/svg">
<path d="M13.968 23.216C11.152 23.216 8.904 22.888 7.224 22.232C5.544 21.576 4.328 20.56 3.576 19.184C2.824 17.792 2.448 15.952 2.448 13.664V6.2H4.728V13.616C4.728 15.44 5.024 16.896 5.616 17.984C6.208 19.056 7.176 19.848 8.52 20.36C9.864 20.856 11.68 21.104 13.968 21.104C16.256 21.104 18.072 20.856 19.416 20.36C20.76 19.848 21.728 19.048 22.32 17.96C22.928 16.872 23.232 15.424 23.232 13.616V6.2H25.512V13.664C25.512 15.952 25.128 17.792 24.36 19.184C23.608 20.56 22.392 21.576 20.712 22.232C19.032 22.888 16.784 23.216 13.968 23.216ZM31.3689 6.2H33.6489V20.912H50.1369V23H31.3689V6.2ZM57.7935 8.288H47.2335V6.2H70.6095V8.288H60.0735V23H57.7935V8.288ZM74.0711 6.2H76.3511V23H74.0711V6.2ZM82.6839 6.2H84.7719L97.2519 16.88L109.852 6.2H111.94V23H109.66V9.08L98.1879 18.92H96.2919L84.9639 9.104V23H82.6839V6.2ZM127.801 6.2H130.393L142.633 23H139.873L137.041 19.064H121.153L118.321 23H115.513L127.801 6.2ZM135.553 17L129.121 8.072H129.073L122.641 17H135.553ZM150.979 8.288H140.419V6.2H163.795V8.288H153.259V23H150.979V8.288ZM167.257 6.2H188.713V8.288H169.537V13.472H187.969V15.584H169.537V20.912H188.905V23H167.257V6.2ZM2.928 36.2H18.408C23.176 36.2 25.56 38.024 25.56 41.672C25.56 45.32 23.176 47.144 18.408 47.144H5.208V53H2.928V36.2ZM18.432 45.056C19.92 45.056 21.088 44.808 21.936 44.312C22.8 43.816 23.232 42.936 23.232 41.672C23.232 40.408 22.808 39.528 21.96 39.032C21.112 38.536 19.936 38.288 18.432 38.288H5.208V45.056H18.432ZM29.8455 36.2H32.1255V53H29.8455V36.2ZM38.4583 36.2H40.7383V50.912H57.2263V53H38.4583V36.2ZM61.2274 36.2H63.5074V50.912H79.9954V53H61.2274V36.2Z" fill="#F1F1F1"/>
<path d="M7.224 22.232L7.58773 21.3005L7.224 22.232ZM3.576 19.184L2.69617 19.6593L2.69849 19.6636L3.576 19.184ZM2.448 6.2V5.2H1.448V6.2H2.448ZM4.728 6.2H5.728V5.2H4.728V6.2ZM5.616 17.984L4.73759 18.462L4.74061 18.4674L5.616 17.984ZM8.52 20.36L8.16399 21.2945L8.17378 21.2982L8.52 20.36ZM19.416 20.36L19.7622 21.2982L19.772 21.2945L19.416 20.36ZM22.32 17.96L21.447 17.4721L21.4416 17.4821L22.32 17.96ZM23.232 6.2V5.2H22.232V6.2H23.232ZM25.512 6.2H26.512V5.2H25.512V6.2ZM24.36 19.184L23.4844 18.7009L23.4825 18.7044L24.36 19.184ZM20.712 22.232L21.0757 23.1635L20.712 22.232ZM13.968 22.216C11.2144 22.216 9.1054 21.8931 7.58773 21.3005L6.86027 23.1635C8.7026 23.8829 11.0896 24.216 13.968 24.216V22.216ZM7.58773 21.3005C6.09203 20.7165 5.07603 19.8435 4.45351 18.7044L2.69849 19.6636C3.57997 21.2765 4.99597 22.4355 6.86027 23.1635L7.58773 21.3005ZM4.45582 18.7087C3.81007 17.5134 3.448 15.8552 3.448 13.664H1.448C1.448 16.0488 1.83793 18.0706 2.69618 19.6593L4.45582 18.7087ZM3.448 13.664V6.2H1.448V13.664H3.448ZM2.448 7.2H4.728V5.2H2.448V7.2ZM3.728 6.2V13.616H5.728V6.2H3.728ZM3.728 13.616C3.728 15.5338 4.03692 17.1742 4.73761 18.4619L6.49439 17.5061C6.01108 16.6178 5.728 15.3462 5.728 13.616H3.728ZM4.74061 18.4674C5.46631 19.7815 6.63952 20.7137 8.16401 21.2945L8.876 19.4255C7.71248 18.9823 6.94969 18.3305 6.49139 17.5006L4.74061 18.4674ZM8.17378 21.2982C9.67478 21.8521 11.6238 22.104 13.968 22.104V20.104C11.7362 20.104 10.0532 19.8599 8.86622 19.4218L8.17378 21.2982ZM13.968 22.104C16.3122 22.104 18.2612 21.8521 19.7622 21.2982L19.0698 19.4218C17.8828 19.8599 16.1998 20.104 13.968 20.104V22.104ZM19.772 21.2945C21.301 20.712 22.4743 19.7687 23.1984 18.4379L21.4416 17.4821C20.9817 18.3273 20.219 18.984 19.06 19.4255L19.772 21.2945ZM23.1929 18.4478C23.9135 17.1585 24.232 15.5228 24.232 13.616H22.232C22.232 15.3252 21.9425 16.5855 21.4471 17.4722L23.1929 18.4478ZM24.232 13.616V6.2H22.232V13.616H24.232ZM23.232 7.2H25.512V5.2H23.232V7.2ZM24.512 6.2V13.664H26.512V6.2H24.512ZM24.512 13.664C24.512 15.8526 24.1428 17.5077 23.4844 18.7009L25.2356 19.6671C26.1132 18.0763 26.512 16.0514 26.512 13.664H24.512ZM23.4825 18.7044C22.86 19.8435 21.844 20.7165 20.3483 21.3005L21.0757 23.1635C22.94 22.4355 24.356 21.2765 25.2375 19.6636L23.4825 18.7044ZM20.3483 21.3005C18.8306 21.8931 16.7216 22.216 13.968 22.216V24.216C16.8464 24.216 19.2334 23.8829 21.0757 23.1635L20.3483 21.3005ZM31.3689 6.2V5.2H30.3689V6.2H31.3689ZM33.6489 6.2H34.6489V5.2H33.6489V6.2ZM33.6489 20.912H32.6489V21.912H33.6489V20.912ZM50.1369 20.912H51.1369V19.912H50.1369V20.912ZM50.1369 23V24H51.1369V23H50.1369ZM31.3689 23H30.3689V24H31.3689V23ZM31.3689 7.2H33.6489V5.2H31.3689V7.2ZM32.6489 6.2V20.912H34.6489V6.2H32.6489ZM33.6489 21.912H50.1369V19.912H33.6489V21.912ZM49.1369 20.912V23H51.1369V20.912H49.1369ZM50.1369 22H31.3689V24H50.1369V22ZM32.3689 23V6.2H30.3689V23H32.3689ZM57.7935 8.288H58.7935V7.288H57.7935V8.288ZM47.2335 8.288H46.2335V9.288H47.2335V8.288ZM47.2335 6.2V5.2H46.2335V6.2H47.2335ZM70.6095 6.2H71.6095V5.2H70.6095V6.2ZM70.6095 8.288V9.288H71.6095V8.288H70.6095ZM60.0735 8.288V7.288H59.0735V8.288H60.0735ZM60.0735 23V24H61.0735V23H60.0735ZM57.7935 23H56.7935V24H57.7935V23ZM57.7935 7.288H47.2335V9.288H57.7935V7.288ZM48.2335 8.288V6.2H46.2335V8.288H48.2335ZM47.2335 7.2H70.6095V5.2H47.2335V7.2ZM69.6095 6.2V8.288H71.6095V6.2H69.6095ZM70.6095 7.288H60.0735V9.288H70.6095V7.288ZM59.0735 8.288V23H61.0735V8.288H59.0735ZM60.0735 22H57.7935V24H60.0735V22ZM58.7935 23V8.288H56.7935V23H58.7935ZM74.0711 6.2V5.2H73.0711V6.2H74.0711ZM76.3511 6.2H77.3511V5.2H76.3511V6.2ZM76.3511 23V24H77.3511V23H76.3511ZM74.0711 23H73.0711V24H74.0711V23ZM74.0711 7.2H76.3511V5.2H74.0711V7.2ZM75.3511 6.2V23H77.3511V6.2H75.3511ZM76.3511 22H74.0711V24H76.3511V22ZM75.0711 23V6.2H73.0711V23H75.0711ZM82.6839 6.2V5.2H81.6839V6.2H82.6839ZM84.7719 6.2L85.4221 5.44023L85.1414 5.2H84.7719V6.2ZM97.2519 16.88L96.6017 17.6398L97.2488 18.1935L97.8985 17.6428L97.2519 16.88ZM109.852 6.2V5.2H109.485L109.205 5.43716L109.852 6.2ZM111.94 6.2H112.94V5.2H111.94V6.2ZM111.94 23V24H112.94V23H111.94ZM109.66 23H108.66V24H109.66V23ZM109.66 9.08H110.66V6.90479L109.009 8.32097L109.66 9.08ZM98.1879 18.92V19.92H98.5581L98.839 19.679L98.1879 18.92ZM96.2919 18.92L95.6371 19.6757L95.9189 19.92H96.2919V18.92ZM84.9639 9.104L85.6188 8.34826L83.9639 6.91427V9.104H84.9639ZM84.9639 23V24H85.9639V23H84.9639ZM82.6839 23H81.6839V24H82.6839V23ZM82.6839 7.2H84.7719V5.2H82.6839V7.2ZM84.1217 6.95977L96.6017 17.6398L97.9021 16.1202L85.4221 5.44023L84.1217 6.95977ZM97.8985 17.6428L110.499 6.96283L109.205 5.43716L96.6053 16.1172L97.8985 17.6428ZM109.852 7.2H111.94V5.2H109.852V7.2ZM110.94 6.2V23H112.94V6.2H110.94ZM111.94 22H109.66V24H111.94V22ZM110.66 23V9.08H108.66V23H110.66ZM109.009 8.32097L97.5369 18.161L98.839 19.679L110.311 9.83903L109.009 8.32097ZM98.1879 17.92H96.2919V19.92H98.1879V17.92ZM96.9468 18.1643L85.6188 8.34826L84.3091 9.85974L95.6371 19.6757L96.9468 18.1643ZM83.9639 9.104V23H85.9639V9.104H83.9639ZM84.9639 22H82.6839V24H84.9639V22ZM83.6839 23V6.2H81.6839V23H83.6839ZM127.801 6.2V5.2H127.294L126.994 5.60964L127.801 6.2ZM130.393 6.2L131.202 5.61114L130.902 5.2H130.393V6.2ZM142.633 23V24H144.599L143.442 22.4111L142.633 23ZM139.873 23L139.062 23.584L139.361 24H139.873V23ZM137.041 19.064L137.853 18.48L137.554 18.064H137.041V19.064ZM121.153 19.064V18.064H120.641L120.342 18.48L121.153 19.064ZM118.321 23V24H118.834L119.133 23.584L118.321 23ZM115.513 23L114.706 22.4096L113.543 24H115.513V23ZM135.553 17V18H137.506L136.365 16.4155L135.553 17ZM129.121 8.072L129.933 7.48746L129.633 7.072H129.121V8.072ZM129.073 8.072V7.072H128.561L128.262 7.48746L129.073 8.072ZM122.641 17L121.83 16.4155L120.688 18H122.641V17ZM127.801 7.2H130.393V5.2H127.801V7.2ZM129.585 6.78886L141.825 23.5889L143.442 22.4111L131.202 5.61114L129.585 6.78886ZM142.633 22H139.873V24H142.633V22ZM140.685 22.416L137.853 18.48L136.23 19.648L139.062 23.584L140.685 22.416ZM137.041 18.064H121.153V20.064H137.041V18.064ZM120.342 18.48L117.51 22.416L119.133 23.584L121.965 19.648L120.342 18.48ZM118.321 22H115.513V24H118.321V22ZM116.32 23.5904L128.608 6.79036L126.994 5.60964L114.706 22.4096L116.32 23.5904ZM136.365 16.4155L129.933 7.48746L128.31 8.65653L134.742 17.5845L136.365 16.4155ZM129.121 7.072H129.073V9.072H129.121V7.072ZM128.262 7.48746L121.83 16.4155L123.453 17.5845L129.885 8.65653L128.262 7.48746ZM122.641 18H135.553V16H122.641V18ZM150.979 8.288H151.979V7.288H150.979V8.288ZM140.419 8.288H139.419V9.288H140.419V8.288ZM140.419 6.2V5.2H139.419V6.2H140.419ZM163.795 6.2H164.795V5.2H163.795V6.2ZM163.795 8.288V9.288H164.795V8.288H163.795ZM153.259 8.288V7.288H152.259V8.288H153.259ZM153.259 23V24H154.259V23H153.259ZM150.979 23H149.979V24H150.979V23ZM150.979 7.288H140.419V9.288H150.979V7.288ZM141.419 8.288V6.2H139.419V8.288H141.419ZM140.419 7.2H163.795V5.2H140.419V7.2ZM162.795 6.2V8.288H164.795V6.2H162.795ZM163.795 7.288H153.259V9.288H163.795V7.288ZM152.259 8.288V23H154.259V8.288H152.259ZM153.259 22H150.979V24H153.259V22ZM151.979 23V8.288H149.979V23H151.979ZM167.257 6.2V5.2H166.257V6.2H167.257ZM188.713 6.2H189.713V5.2H188.713V6.2ZM188.713 8.288V9.288H189.713V8.288H188.713ZM169.537 8.288V7.288H168.537V8.288H169.537ZM169.537 13.472H168.537V14.472H169.537V13.472ZM187.969 13.472H188.969V12.472H187.969V13.472ZM187.969 15.584V16.584H188.969V15.584H187.969ZM169.537 15.584V14.584H168.537V15.584H169.537ZM169.537 20.912H168.537V21.912H169.537V20.912ZM188.905 20.912H189.905V19.912H188.905V20.912ZM188.905 23V24H189.905V23H188.905ZM167.257 23H166.257V24H167.257V23ZM167.257 7.2H188.713V5.2H167.257V7.2ZM187.713 6.2V8.288H189.713V6.2H187.713ZM188.713 7.288H169.537V9.288H188.713V7.288ZM168.537 8.288V13.472H170.537V8.288H168.537ZM169.537 14.472H187.969V12.472H169.537V14.472ZM186.969 13.472V15.584H188.969V13.472H186.969ZM187.969 14.584H169.537V16.584H187.969V14.584ZM168.537 15.584V20.912H170.537V15.584H168.537ZM169.537 21.912H188.905V19.912H169.537V21.912ZM187.905 20.912V23H189.905V20.912H187.905ZM188.905 22H167.257V24H188.905V22ZM168.257 23V6.2H166.257V23H168.257ZM2.928 36.2V35.2H1.928V36.2H2.928ZM5.208 47.144V46.144H4.208V47.144H5.208ZM5.208 53V54H6.208V53H5.208ZM2.928 53H1.928V54H2.928V53ZM21.936 44.312L21.4381 43.4447L21.4311 43.4488L21.936 44.312ZM21.96 39.032L21.4551 39.8952L21.96 39.032ZM5.208 38.288V37.288H4.208V38.288H5.208ZM5.208 45.056H4.208V46.056H5.208V45.056ZM2.928 37.2H18.408V35.2H2.928V37.2ZM18.408 37.2C20.6927 37.2 22.2229 37.6419 23.1644 38.3622C24.0552 39.0438 24.56 40.0846 24.56 41.672H26.56C26.56 39.6114 25.8728 37.9162 24.3796 36.7738C22.9371 35.6701 20.8913 35.2 18.408 35.2V37.2ZM24.56 41.672C24.56 43.2594 24.0552 44.3002 23.1644 44.9818C22.2229 45.7021 20.6927 46.144 18.408 46.144V48.144C20.8913 48.144 22.9371 47.6739 24.3796 46.5702C25.8728 45.4278 26.56 43.7326 26.56 41.672H24.56ZM18.408 46.144H5.208V48.144H18.408V46.144ZM4.208 47.144V53H6.208V47.144H4.208ZM5.208 52H2.928V54H5.208V52ZM3.928 53V36.2H1.928V53H3.928ZM18.432 46.056C20.0131 46.056 21.3804 45.7955 22.4409 45.1752L21.4311 43.4488C20.7956 43.8205 19.8269 44.056 18.432 44.056V46.056ZM22.4339 45.1793C23.6945 44.4556 24.232 43.1825 24.232 41.672H22.232C22.232 42.6895 21.9055 43.1764 21.4381 43.4447L22.4339 45.1793ZM24.232 41.672C24.232 40.1699 23.7087 38.8963 22.4649 38.1688L21.4551 39.8952C21.9073 40.1597 22.232 40.6461 22.232 41.672H24.232ZM22.4649 38.1688C21.4031 37.5478 20.0268 37.288 18.432 37.288V39.288C19.8452 39.288 20.8209 39.5242 21.4551 39.8952L22.4649 38.1688ZM18.432 37.288H5.208V39.288H18.432V37.288ZM4.208 38.288V45.056H6.208V38.288H4.208ZM5.208 46.056H18.432V44.056H5.208V46.056ZM29.8455 36.2V35.2H28.8455V36.2H29.8455ZM32.1255 36.2H33.1255V35.2H32.1255V36.2ZM32.1255 53V54H33.1255V53H32.1255ZM29.8455 53H28.8455V54H29.8455V53ZM29.8455 37.2H32.1255V35.2H29.8455V37.2ZM31.1255 36.2V53H33.1255V36.2H31.1255ZM32.1255 52H29.8455V54H32.1255V52ZM30.8455 53V36.2H28.8455V53H30.8455ZM38.4583 36.2V35.2H37.4583V36.2H38.4583ZM40.7383 36.2H41.7383V35.2H40.7383V36.2ZM40.7383 50.912H39.7383V51.912H40.7383V50.912ZM57.2263 50.912H58.2263V49.912H57.2263V50.912ZM57.2263 53V54H58.2263V53H57.2263ZM38.4583 53H37.4583V54H38.4583V53ZM38.4583 37.2H40.7383V35.2H38.4583V37.2ZM39.7383 36.2V50.912H41.7383V36.2H39.7383ZM40.7383 51.912H57.2263V49.912H40.7383V51.912ZM56.2263 50.912V53H58.2263V50.912H56.2263ZM57.2263 52H38.4583V54H57.2263V52ZM39.4583 53V36.2H37.4583V53H39.4583ZM61.2274 36.2V35.2H60.2274V36.2H61.2274ZM63.5074 36.2H64.5074V35.2H63.5074V36.2ZM63.5074 50.912H62.5074V51.912H63.5074V50.912ZM79.9954 50.912H80.9954V49.912H79.9954V50.912ZM79.9954 53V54H80.9954V53H79.9954ZM61.2274 53H60.2274V54H61.2274V53ZM61.2274 37.2H63.5074V35.2H61.2274V37.2ZM62.5074 36.2V50.912H64.5074V36.2H62.5074ZM63.5074 51.912H79.9954V49.912H63.5074V51.912ZM78.9954 50.912V53H80.9954V50.912H78.9954ZM79.9954 52H61.2274V54H79.9954V52ZM62.2274 53V36.2H60.2274V53H62.2274Z" fill="#F1F1F1"/>
<path d="M146.125 55.0078C144.828 55.0078 143.721 54.5521 142.805 53.6406C141.893 52.7292 141.438 51.625 141.438 50.3281C141.438 49.0312 141.893 47.9271 142.805 47.0156C143.721 46.099 144.828 45.6406 146.125 45.6406C147.417 45.6406 148.518 46.099 149.43 47.0156C150.346 47.9271 150.805 49.0312 150.805 50.3281C150.805 51.625 150.346 52.7292 149.43 53.6406C148.518 54.5521 147.417 55.0078 146.125 55.0078ZM146.133 46.375C145.039 46.375 144.104 46.7604 143.328 47.5312C142.557 48.3021 142.172 49.2344 142.172 50.3281C142.172 51.4167 142.557 52.3464 143.328 53.1172C144.104 53.888 145.039 54.2734 146.133 54.2734C147.221 54.2734 148.148 53.888 148.914 53.1172C149.685 52.3464 150.07 51.4167 150.07 50.3281C150.07 49.2344 149.685 48.3021 148.914 47.5312C148.148 46.7604 147.221 46.375 146.133 46.375ZM148.398 53.2578H147.32L146.672 51.8281C146.344 51.1094 145.99 50.75 145.609 50.75H145.203V53.2578H144.289V47.2969H145.969C146.661 47.2969 147.195 47.4427 147.57 47.7344C147.951 48.026 148.141 48.4219 148.141 48.9219C148.141 49.3281 148.008 49.6771 147.742 49.9688C147.477 50.2552 147.107 50.4479 146.633 50.5469V50.5703C146.961 50.6432 147.289 51.0104 147.617 51.6719L148.398 53.2578ZM145.203 48.0703V49.9844H145.938C146.76 49.9844 147.172 49.6641 147.172 49.0234C147.172 48.6536 147.06 48.4036 146.836 48.2734C146.617 48.138 146.268 48.0703 145.789 48.0703H145.203Z" fill="#F1F1F1"/>
<rect x="92" y="35" width="43" height="19" rx="9.5" stroke="#F1F1F1" stroke-width="4"/>
<line x1="118" y1="34" x2="118" y2="53" stroke="#F1F1F1" stroke-width="4"/>
</svg>
